<svg id="Camada_2" data-name="Camada 2" xmlns="http://www.w3.org/2000/svg" viewBox="0 0 421.32 460.85"><defs><style>.cls-1,.cls-10,.cls-2,.cls-4,.cls-5,.cls-6,.cls-7,.cls-8{fill:none;}.cls-1,.cls-8{stroke:#8ab45c;}.cls-1,.cls-10,.cls-5,.cls-6,.cls-7{stroke-linecap:round;}.cls-1,.cls-10,.cls-7{stroke-linejoin:round;}.cls-10,.cls-2,.cls-7{stroke:#0061a5;}.cls-2,.cls-4,.cls-5,.cls-6,.cls-8{stroke-miterlimit:10;}.cls-2{stroke-width:7px;}.cls-3{fill:#c95d67;}.cls-3,.cls-9{opacity:0.5;}.cls-4,.cls-5,.cls-6{stroke:#004f96;}.cls-5,.cls-7{stroke-width:2px;}.cls-6{stroke-width:3px;}.cls-9{fill:#b9565f;}</style></defs><title>Cocktail</title><path class="cls-1" d="M190,329l-63,63A98.08,98.08,0,1,1,265.53,253.81l-35.66,35.66" transform="translate(-92.96 -144.65)"/><polyline class="cls-2" points="419.63 38.6 352.11 75.75 211.55 271.84"/><polygon class="cls-3" points="111.06 166 267.9 166 200.27 260.51 111.06 166"/><polygon class="cls-3" points="303.77 166.66 311.73 166.66 269.52 217.04 303.77 166.66"/><circle class="cls-4" cx="258.72" cy="128.79" r="5.65"/><circle class="cls-4" cx="293.14" cy="115.31" r="5.78"/><path class="cls-4" d="M351.68,261.13" transform="translate(-92.96 -144.65)"/><path class="cls-4" d="M351.68,273.45" transform="translate(-92.96 -144.65)"/><line class="cls-5" x1="210.96" y1="82.97" x2="210.96" y2="93.07"/><line class="cls-5" x1="222.3" y1="98.15" x2="228.94" y2="91"/><line class="cls-5" x1="226.87" y1="109.79" x2="236.89" y2="109.79"/><line class="cls-5" x1="209.92" y1="125.55" x2="209.92" y2="135.72"/><line class="cls-5" x1="198.49" y1="120.78" x2="191.79" y2="127.47"/><line class="cls-5" x1="194.58" y1="109.16" x2="183.91" y2="109.16"/><line class="cls-5" x1="199.32" y1="97.56" x2="192.38" y2="90.63"/><line class="cls-5" x1="228.74" y1="127.99" x2="221.65" y2="120.91"/><line class="cls-6" x1="279.46" y1="19.84" x2="283.59" y2="1.5"/><line class="cls-6" x1="298.32" y1="33.54" x2="314.12" y2="23.49"/><line class="cls-6" x1="301.88" y1="56.67" x2="320.37" y2="60.93"/><line class="cls-6" x1="264.95" y1="79.14" x2="260.97" y2="97.41"/><line class="cls-6" x1="246.17" y1="65.29" x2="230.4" y2="75.46"/><line class="cls-6" x1="242.64" y1="42.36" x2="224.3" y2="38.21"/><line class="cls-6" x1="256.41" y1="23.31" x2="246.24" y2="7.69"/><line class="cls-6" x1="288.05" y1="75.57" x2="298.17" y2="91.37"/><line class="cls-7" x1="59.28" y1="144.56" x2="361.09" y2="144.56"/><polyline class="cls-7" points="361.08 144.56 211.82 304.9 59.27 144.56"/><path class="cls-8" d="M304.78,449.56" transform="translate(-92.96 -144.65)"/><polygon class="cls-7" points="111.65 459.85 211.82 416.02 311.36 459.85 111.65 459.85"/><line class="cls-7" x1="211.96" y1="304.9" x2="211.96" y2="416.02"/><circle class="cls-9" cx="199.39" cy="206.44" r="10.79"/><circle class="cls-9" cx="231.88" cy="176.9" r="5.01"/><circle class="cls-9" cx="166.39" cy="189.64" r="5.82"/><line class="cls-10" x1="155.84" y1="452.7" x2="228.74" y2="452.7"/><path class="cls-10" d="M472.39,265.34" transform="translate(-92.96 -144.65)"/><path class="cls-4" d="M234.8,183.77l11.42,4.72a1.47,1.47,0,0,1,1,1.39V201.6a1.54,1.54,0,0,0,1.59,1.49,1.56,1.56,0,0,0,1.06-.46l8-8.25a1.31,1.31,0,0,1,1.4-.44l11.19,2.57a1.54,1.54,0,0,0,1.8-1.24,1.57,1.57,0,0,0-.18-1l-6.33-9.94a1.62,1.62,0,0,1,0-1.62l6.85-10.24a1.48,1.48,0,0,0-.38-2.05,1.46,1.46,0,0,0-1.09-.24l-12.23,2a1.46,1.46,0,0,1-1-.59l-7.37-8.32a1.47,1.47,0,0,0-2.65.81l-1,10.68a1.62,1.62,0,0,1-.89,1.25l-11.12,5.45a1.49,1.49,0,0,0-.3,2.07A1.64,1.64,0,0,0,234.8,183.77Z" transform="translate(-92.96 -144.65)"/><path class="cls-4" d="M491.25,259.75a1.19,1.19,0,0,1-.44-.45l-3.91-7.36a1.25,1.25,0,0,0-1.69-.52,1.3,1.3,0,0,0-.52.52l-3.9,7.36s0,.37-.52.45l-7.36,3.9a1.25,1.25,0,0,0-.52,1.69,1.3,1.3,0,0,0,.52.52l7.36,3.9a1.72,1.72,0,0,1,.52.52l3.9,7.37a1.25,1.25,0,0,0,1.7.51,1.2,1.2,0,0,0,.51-.51l3.91-7.37a.59.59,0,0,1,.44-.52l7.36-3.9a1.25,1.25,0,0,0,.52-1.69,1.3,1.3,0,0,0-.52-.52Z" transform="translate(-92.96 -144.65)"/><path class="cls-1" d="M143.62,374.31A73.63,73.63,0,1,1,247.68,270.76" transform="translate(-92.96 -144.65)"/><line class="cls-1" x1="24.94" y1="173.75" x2="84.4" y2="173.75"/><line class="cls-1" x1="45.43" y1="122.79" x2="65.81" y2="143.18"/><line class="cls-1" x1="98.57" y1="100.12" x2="98.57" y2="142.51"/></svg>